<svg xmlns="http://www.w3.org/2000/svg" width="512" height="512" viewBox="0 0 511.626 511.626"><g fill="#283593"><path d="M63.953 164.453H9.135c-2.474 0-4.615.9-6.423 2.71-1.81 1.81-2.712 3.95-2.712 6.426v54.816c0 2.473.903 4.62 2.712 6.424 1.81 1.803 3.95 2.712 6.423 2.712h54.818c2.474 0 4.615-.905 6.423-2.712 1.81-1.81 2.712-3.95 2.712-6.424V173.59c0-2.476-.904-4.618-2.712-6.428-1.808-1.806-3.95-2.71-6.423-2.71zM63.953 383.722H9.135c-2.474 0-4.615.896-6.423 2.707C.902 388.237 0 390.377 0 392.853v54.82c0 2.47.903 4.61 2.712 6.42 1.81 1.813 3.95 2.714 6.423 2.714h54.818c2.474 0 4.615-.903 6.423-2.714 1.81-1.807 2.712-3.95 2.712-6.42v-54.82c0-2.477-.904-4.616-2.712-6.426-1.808-1.803-3.95-2.706-6.423-2.706zM63.953 274.082H9.135c-2.474 0-4.615.91-6.423 2.714S0 280.75 0 283.22v54.815c0 2.478.903 4.62 2.712 6.427 1.81 1.808 3.95 2.707 6.423 2.707h54.818c2.474 0 4.615-.897 6.423-2.708 1.81-1.807 2.712-3.95 2.712-6.427V283.22c0-2.47-.904-4.613-2.712-6.424-1.808-1.807-3.95-2.714-6.423-2.714zM63.953 54.817H9.135c-2.474 0-4.615.903-6.423 2.712S0 61.48 0 63.952v54.817c0 2.475.903 4.615 2.712 6.424s3.95 2.712 6.423 2.712h54.818c2.474 0 4.615-.9 6.423-2.712 1.81-1.81 2.712-3.95 2.712-6.424V63.953c0-2.475-.904-4.615-2.712-6.424-1.808-1.805-3.95-2.713-6.423-2.713zM502.49 383.722H118.77c-2.473 0-4.614.896-6.422 2.707-1.81 1.81-2.712 3.948-2.712 6.425v54.82c0 2.47.903 4.61 2.712 6.42 1.81 1.813 3.946 2.714 6.423 2.714h383.72c2.478 0 4.616-.904 6.427-2.715 1.81-1.81 2.71-3.95 2.71-6.42v-54.82c0-2.477-.903-4.616-2.71-6.426-1.81-1.805-3.95-2.708-6.427-2.708zM502.49 274.082H118.77c-2.473 0-4.614.91-6.422 2.714s-2.712 3.953-2.712 6.424v54.815c0 2.478.903 4.62 2.712 6.427 1.81 1.808 3.946 2.707 6.423 2.707h383.72c2.478 0 4.616-.897 6.427-2.708 1.81-1.807 2.71-3.95 2.71-6.427V283.22c0-2.47-.903-4.613-2.71-6.424-1.81-1.804-3.95-2.714-6.427-2.714zM508.917 57.53c-1.81-1.806-3.95-2.713-6.427-2.713H118.77c-2.473 0-4.614.903-6.422 2.712s-2.712 3.948-2.712 6.423v54.817c0 2.475.903 4.615 2.712 6.424s3.946 2.712 6.423 2.712h383.72c2.478 0 4.616-.9 6.427-2.712 1.81-1.81 2.71-3.95 2.71-6.424V63.953c0-2.474-.904-4.615-2.71-6.424zM502.49 164.453H118.77c-2.473 0-4.614.9-6.422 2.71-1.81 1.81-2.712 3.95-2.712 6.426v54.816c0 2.473.903 4.615 2.712 6.424 1.81 1.803 3.946 2.712 6.423 2.712h383.72c2.478 0 4.616-.905 6.427-2.712 1.81-1.81 2.71-3.95 2.71-6.424V173.59c0-2.476-.903-4.618-2.71-6.428-1.81-1.806-3.95-2.71-6.427-2.71z"/></g></svg>